<svg width="848" height="770" xmlns="http://www.w3.org/2000/svg" version="1.1"><g transform="translate(0, 10)"><g class="links" fill="none" stroke-opacity="0.4"><path d="M5,434.21875C424,434.21875,424,103.28124999999994,843,103.28124999999994" style="stroke: rgb(191, 105, 105);" stroke-width="0.3125"></path><path d="M5,449.6875C424,449.6875,424,179.68749999999994,843,179.68749999999994" style="stroke: rgb(191, 105, 105);" stroke-width="10"></path><path d="M5,439.53125C424,439.53125,424,159.53124999999994,843,159.53124999999994" style="stroke: rgb(191, 105, 105);" stroke-width="10.3125"></path><path d="M5,463.4375C424,463.4375,424,590.0000000000001,843,590.0000000000001" style="stroke: rgb(191, 105, 105);" stroke-width="1.875"></path><path d="M5,461.5625C424,461.5625,424,578.1250000000001,843,578.1250000000001" style="stroke: rgb(191, 105, 105);" stroke-width="1.875"></path><path d="M5,466.09375C424,466.09375,424,708.5937500000001,843,708.5937500000001" style="stroke: rgb(191, 105, 105);" stroke-width="0.3125"></path><path d="M5,456.5625C424,456.5625,424,449.6875000000001,843,449.6875000000001" style="stroke: rgb(191, 105, 105);" stroke-width="3.75"></path><path d="M5,459.53125C424,459.53125,424,553.9062500000001,843,553.9062500000001" style="stroke: rgb(191, 105, 105);" stroke-width="2.1875"></path><path d="M5,464.6875C424,464.6875,424,601.2500000000001,843,601.2500000000001" style="stroke: rgb(191, 105, 105);" stroke-width="0.625"></path><path d="M5,465.3125C424,465.3125,424,645.9375000000001,843,645.9375000000001" style="stroke: rgb(191, 105, 105);" stroke-width="0.625"></path><path d="M5,465.78125C424,465.78125,424,677.6562500000001,843,677.6562500000001" style="stroke: rgb(191, 105, 105);" stroke-width="0.3125"></path><path d="M5,480.46875C424,480.46875,424,236.40624999999994,843,236.40624999999994" style="stroke: rgb(191, 191, 105);" stroke-width="8.4375"></path><path d="M5,487.1875C424,487.1875,424,667.1875000000001,843,667.1875000000001" style="stroke: rgb(191, 191, 105);" stroke-width="0.625"></path><path d="M5,485.9375C424,485.9375,424,613.1250000000001,843,613.1250000000001" style="stroke: rgb(191, 191, 105);" stroke-width="0.625"></path><path d="M5,486.5625C424,486.5625,424,635.3125000000001,843,635.3125000000001" style="stroke: rgb(191, 191, 105);" stroke-width="0.625"></path><path d="M5,485.15625C424,485.15625,424,602.0312500000001,843,602.0312500000001" style="stroke: rgb(191, 191, 105);" stroke-width="0.9375"></path><path d="M5,487.65625C424,487.65625,424,687.9687500000001,843,687.9687500000001" style="stroke: rgb(191, 191, 105);" stroke-width="0.3125"></path><path d="M5,487.96875C424,487.96875,424,698.2812500000001,843,698.2812500000001" style="stroke: rgb(191, 191, 105);" stroke-width="0.3125"></path><path d="M5,392.1875C424,392.1875,424,271.24999999999994,843,271.24999999999994" style="stroke: rgb(105, 191, 105);" stroke-width="6.875"></path><path d="M5,399.0625C424,399.0625,424,288.125,843,288.125" style="stroke: rgb(105, 191, 105);" stroke-width="6.875"></path><path d="M5,415.78125C424,415.78125,424,379.8437500000001,843,379.8437500000001" style="stroke: rgb(105, 191, 105);" stroke-width="4.0625"></path><path d="M5,385.15625C424,385.15625,424,254.21874999999994,843,254.21874999999994" style="stroke: rgb(105, 191, 105);" stroke-width="7.1875"></path><path d="M5,411.09375C424,411.09375,424,336.0937500000001,843,336.0937500000001" style="stroke: rgb(105, 191, 105);" stroke-width="5.3125"></path><path d="M5,405.46875C424,405.46875,424,320.4687500000001,843,320.4687500000001" style="stroke: rgb(105, 191, 105);" stroke-width="5.9375"></path><path d="M5,421.875C424,421.875,424,529.3750000000001,843,529.3750000000001" style="stroke: rgb(105, 191, 105);" stroke-width="2.5"></path><path d="M5,419.21875C424,419.21875,424,503.9062500000001,843,503.9062500000001" style="stroke: rgb(105, 191, 105);" stroke-width="2.8125"></path><path d="M5,423.59375C424,423.59375,424,624.2187500000001,843,624.2187500000001" style="stroke: rgb(105, 191, 105);" stroke-width="0.9375"></path><path d="M5,276.09375C424,276.09375,424,76.40624999999994,843,76.40624999999994" style="stroke: rgb(105, 191, 191);" stroke-width="12.1875"></path><path d="M5,263.59375C424,263.59375,424,53.90624999999994,843,53.90624999999994" style="stroke: rgb(105, 191, 191);" stroke-width="12.8125"></path><path d="M5,318.125C424,318.125,424,199.06249999999994,843,199.06249999999994" style="stroke: rgb(105, 191, 191);" stroke-width="8.75"></path><path d="M5,298.125C424,298.125,424,118.74999999999994,843,118.74999999999994" style="stroke: rgb(105, 191, 191);" stroke-width="10.625"></path><path d="M5,250.625C424,250.625,424,30.937499999999943,843,30.937499999999943" style="stroke: rgb(105, 191, 191);" stroke-width="13.125"></path><path d="M5,237.03125C424,237.03125,424,7.031249999999943,843,7.031249999999943" style="stroke: rgb(105, 191, 191);" stroke-width="14.0625"></path><path d="M5,370.46875C424,370.46875,424,634.8437500000001,843,634.8437500000001" style="stroke: rgb(105, 191, 191);" stroke-width="0.3125"></path><path d="M5,360.3125C424,360.3125,424,463.4375000000001,843,463.4375000000001" style="stroke: rgb(105, 191, 191);" stroke-width="3.75"></path><path d="M5,326.875C424,326.875,424,217.81249999999994,843,217.81249999999994" style="stroke: rgb(105, 191, 191);" stroke-width="8.75"></path><path d="M5,368.90625C424,368.90625,424,566.0937500000001,843,566.0937500000001" style="stroke: rgb(105, 191, 191);" stroke-width="2.1875"></path><path d="M5,356.40625C424,356.40625,424,422.0312500000001,843,422.0312500000001" style="stroke: rgb(105, 191, 191);" stroke-width="4.0625"></path><path d="M5,344.0625C424,344.0625,424,365.6250000000001,843,365.6250000000001" style="stroke: rgb(105, 191, 191);" stroke-width="4.375"></path><path d="M5,371.40625C424,371.40625,424,739.5312500000001,843,739.5312500000001" style="stroke: rgb(105, 191, 191);" stroke-width="0.3125"></path><path d="M5,352.34375C424,352.34375,424,407.9687500000001,843,407.9687500000001" style="stroke: rgb(105, 191, 191);" stroke-width="4.0625"></path><path d="M5,287.5C424,287.5,424,97.81249999999994,843,97.81249999999994" style="stroke: rgb(105, 191, 191);" stroke-width="10.625"></path><path d="M5,308.59375C424,308.59375,424,139.21874999999994,843,139.21874999999994" style="stroke: rgb(105, 191, 191);" stroke-width="10.3125"></path><path d="M5,348.28125C424,348.28125,424,393.9062500000001,843,393.9062500000001" style="stroke: rgb(105, 191, 191);" stroke-width="4.0625"></path><path d="M5,363.90625C424,363.90625,424,490.7812500000001,843,490.7812500000001" style="stroke: rgb(105, 191, 191);" stroke-width="3.4375"></path><path d="M5,334.21875C424,334.21875,424,304.53125,843,304.53125" style="stroke: rgb(105, 191, 191);" stroke-width="5.9375"></path><path d="M5,366.71875C424,366.71875,424,541.7187500000001,843,541.7187500000001" style="stroke: rgb(105, 191, 191);" stroke-width="2.1875"></path><path d="M5,339.53125C424,339.53125,424,351.0937500000001,843,351.0937500000001" style="stroke: rgb(105, 191, 191);" stroke-width="4.6875"></path><path d="M5,370.15625C424,370.15625,424,612.6562500000001,843,612.6562500000001" style="stroke: rgb(105, 191, 191);" stroke-width="0.3125"></path><path d="M5,370.9375C424,370.9375,424,656.5625000000001,843,656.5625000000001" style="stroke: rgb(105, 191, 191);" stroke-width="0.625"></path><path d="M5,519.21875C424,519.21875,424,718.9062500000001,843,718.9062500000001" style="stroke: rgb(105, 105, 191);" stroke-width="0.3125"></path><path d="M5,519.84375C424,519.84375,424,749.8437500000001,843,749.8437500000001" style="stroke: rgb(105, 105, 191);" stroke-width="0.3125"></path><path d="M5,518.90625C424,518.90625,424,613.5937500000001,843,613.5937500000001" style="stroke: rgb(105, 105, 191);" stroke-width="0.3125"></path><path d="M5,518.59375C424,518.59375,424,14.218749999999943,843,14.218749999999943" style="stroke: rgb(105, 105, 191);" stroke-width="0.3125"></path><path d="M5,519.53125C424,519.53125,424,729.2187500000001,843,729.2187500000001" style="stroke: rgb(105, 105, 191);" stroke-width="0.3125"></path><path d="M5,503.75C424,503.75,424,477.1875000000001,843,477.1875000000001" style="stroke: rgb(191, 105, 191);" stroke-width="3.75"></path><path d="M5,500C424,500,424,435.9375000000001,843,435.9375000000001" style="stroke: rgb(191, 105, 191);" stroke-width="3.75"></path><path d="M5,507.03125C424,507.03125,424,516.7187500000001,843,516.7187500000001" style="stroke: rgb(191, 105, 191);" stroke-width="2.8125"></path></g><g class="nodes" font-family="Arial, Helvetica" font-size="10"><g><rect x="843" y="645.6250000000001" height="0.625" width="5" fill="#000"></rect><text x="837" y="645.9375000000001" dy="0.35em" text-anchor="end">【ღ 摩羯座 ღ】</text></g><g><rect x="843" y="656.2500000000001" height="0.625" width="5" fill="#000"></rect><text x="837" y="656.5625000000001" dy="0.35em" text-anchor="end">Gy娛樂看板</text></g><g><rect x="843" y="232.18749999999994" height="8.43750000000001" width="5" fill="#000"></rect><text x="837" y="236.40624999999994" dy="0.35em" text-anchor="end">Hssszn 讚新聞</text></g><g><rect x="843" y="677.5000000000001" height="0.3125" width="5" fill="#000"></rect><text x="837" y="677.6562500000001" dy="0.35em" text-anchor="end">一起追劇吧</text></g><g><rect x="843" y="623.7500000000001" height="0.9375" width="5" fill="#000"></rect><text x="837" y="624.2187500000001" dy="0.35em" text-anchor="end">世界華人歷史會社</text></g><g><rect x="843" y="634.6875000000001" height="0.9375" width="5" fill="#000"></rect><text x="837" y="635.1562500000001" dy="0.35em" text-anchor="end">中國國民黨三民主義青年團</text></g><g><rect x="843" y="687.8125000000001" height="0.3125" width="5" fill="#000"></rect><text x="837" y="687.9687500000001" dy="0.35em" text-anchor="end">中道  台灣</text></g><g><rect x="843" y="194.68749999999994" height="8.75" width="5" fill="#000"></rect><text x="837" y="199.06249999999994" dy="0.35em" text-anchor="end">人生正能量</text></g><g><rect x="843" y="70.31249999999994" height="12.1875" width="5" fill="#000"></rect><text x="837" y="76.40624999999994" dy="0.35em" text-anchor="end">人生笑著走</text></g><g><rect x="843" y="250.62499999999994" height="7.1875" width="5" fill="#000"></rect><text x="837" y="254.21874999999994" dy="0.35em" text-anchor="end">全球華人歷史文化聯盟</text></g><g><rect x="843" y="377.8125000000001" height="4.0625" width="5" fill="#000"></rect><text x="837" y="379.8437500000001" dy="0.35em" text-anchor="end">全球華人盛世聯盟</text></g><g><rect x="843" y="284.6875" height="6.875" width="5" fill="#000"></rect><text x="837" y="288.125" dy="0.35em" text-anchor="end">全球華人聯盟總主頁</text></g><g><rect x="843" y="267.81249999999994" height="6.875000000000028" width="5" fill="#000"></rect><text x="837" y="271.24999999999994" dy="0.35em" text-anchor="end">全球華人資訊聯盟</text></g><g><rect x="843" y="502.5000000000001" height="2.8125" width="5" fill="#000"></rect><text x="837" y="503.9062500000001" dy="0.35em" text-anchor="end">全球華人軍事聯盟</text></g><g><rect x="843" y="528.1250000000001" height="2.5" width="5" fill="#000"></rect><text x="837" y="529.3750000000001" dy="0.35em" text-anchor="end">全球華人鐵血聯盟</text></g><g><rect x="843" y="489.0625000000001" height="3.4375" width="5" fill="#000"></rect><text x="837" y="490.7812500000001" dy="0.35em" text-anchor="end">反民進黨粉絲團</text></g><g><rect x="843" y="301.5625" height="5.937500000000114" width="5" fill="#000"></rect><text x="837" y="304.53125000000006" dy="0.35em" text-anchor="end">反綠救國人人有責</text></g><g><rect x="843" y="612.5000000000001" height="1.25" width="5" fill="#000"></rect><text x="837" y="613.1250000000001" dy="0.35em" text-anchor="end">反蔡英文粉絲團</text></g><g><rect x="843" y="-5.684341886080802e-14" height="14.375" width="5" fill="#000"></rect><text x="837" y="7.187499999999943" dy="0.35em" text-anchor="end">反蔡英文聯盟－全國民怨嗆蔡總部</text></g><g><rect x="843" y="348.7500000000001" height="4.6875" width="5" fill="#000"></rect><text x="837" y="351.0937500000001" dy="0.35em" text-anchor="end">大中華大平台</text></g><g><rect x="843" y="333.4375000000001" height="5.3125" width="5" fill="#000"></rect><text x="837" y="336.0937500000001" dy="0.35em" text-anchor="end">天南地北</text></g><g><rect x="843" y="434.0625000000001" height="3.75" width="5" fill="#000"></rect><text x="837" y="435.9375000000001" dy="0.35em" text-anchor="end">守護台灣聯盟</text></g><g><rect x="843" y="540.6250000000001" height="2.1875" width="5" fill="#000"></rect><text x="837" y="541.7187500000001" dy="0.35em" text-anchor="end">幹譙民進黨</text></g><g><rect x="843" y="447.8125000000001" height="3.75" width="5" fill="#000"></rect><text x="837" y="449.6875000000001" dy="0.35em" text-anchor="end">按贊福氣到</text></g><g><rect x="843" y="461.5625000000001" height="3.75" width="5" fill="#000"></rect><text x="837" y="463.4375000000001" dy="0.35em" text-anchor="end">文青工作會</text></g><g><rect x="843" y="577.1875000000001" height="1.875" width="5" fill="#000"></rect><text x="837" y="578.1250000000001" dy="0.35em" text-anchor="end">旅行．美景．看世界！</text></g><g><rect x="843" y="134.06249999999994" height="10.3125" width="5" fill="#000"></rect><text x="837" y="139.21874999999994" dy="0.35em" text-anchor="end">旅行‧電影‧愛音樂</text></g><g><rect x="843" y="666.8750000000001" height="0.6249999999999858" width="5" fill="#000"></rect><text x="837" y="667.1875000000001" dy="0.35em" text-anchor="end">昏官惡狼圍剿社團²</text></g><g><rect x="843" y="698.1250000000001" height="0.3125" width="5" fill="#000"></rect><text x="837" y="698.2812500000001" dy="0.35em" text-anchor="end">桃園市國民學堂</text></g><g><rect x="843" y="708.4375000000001" height="0.3125" width="5" fill="#000"></rect><text x="837" y="708.5937500000001" dy="0.35em" text-anchor="end">歡樂世界</text></g><g><rect x="843" y="391.8750000000001" height="4.0625" width="5" fill="#000"></rect><text x="837" y="393.9062500000001" dy="0.35em" text-anchor="end">民間大小事</text></g><g><rect x="843" y="552.8125000000001" height="2.1875" width="5" fill="#000"></rect><text x="837" y="553.9062500000001" dy="0.35em" text-anchor="end">爱烘培，爱料理，爱健康</text></g><g><rect x="843" y="317.5000000000001" height="5.9375" width="5" fill="#000"></rect><text x="837" y="320.4687500000001" dy="0.35em" text-anchor="end">琦琦看新聞</text></g><g><rect x="843" y="600.9375000000001" height="1.5625" width="5" fill="#000"></rect><text x="837" y="601.7187500000001" dy="0.35em" text-anchor="end">祝福天天圍繞你</text></g><g><rect x="843" y="718.7500000000001" height="0.3125" width="5" fill="#000"></rect><text x="837" y="718.9062500000001" dy="0.35em" text-anchor="end">統一中國/中國統一  /  统一中国/中国统一</text></g><g><rect x="843" y="405.9375000000001" height="4.0625" width="5" fill="#000"></rect><text x="837" y="407.9687500000001" dy="0.35em" text-anchor="end">罷免民進黨</text></g><g><rect x="843" y="92.49999999999994" height="10.9375" width="5" fill="#000"></rect><text x="837" y="97.96874999999994" dy="0.35em" text-anchor="end">芒果新聞台</text></g><g><rect x="843" y="154.37499999999994" height="10.3125" width="5" fill="#000"></rect><text x="837" y="159.53124999999994" dy="0.35em" text-anchor="end">萌寵小天使</text></g><g><rect x="843" y="729.0625000000001" height="0.3125" width="5" fill="#000"></rect><text x="837" y="729.2187500000001" dy="0.35em" text-anchor="end">蔡英文下台罪狀集結總部</text></g><g><rect x="843" y="565.0000000000001" height="2.1875" width="5" fill="#000"></rect><text x="837" y="566.0937500000001" dy="0.35em" text-anchor="end">藍色正義力量</text></g><g><rect x="843" y="420.0000000000001" height="4.0625" width="5" fill="#000"></rect><text x="837" y="422.0312500000001" dy="0.35em" text-anchor="end">討厭民進黨</text></g><g><rect x="843" y="739.3750000000001" height="0.3125" width="5" fill="#000"></rect><text x="837" y="739.5312500000001" dy="0.35em" text-anchor="end">話說，那些編造的事</text></g><g><rect x="843" y="589.0625000000001" height="1.875" width="5" fill="#000"></rect><text x="837" y="590.0000000000001" dy="0.35em" text-anchor="end">語錄、生活、時事</text></g><g><rect x="843" y="113.43749999999994" height="10.625" width="5" fill="#000"></rect><text x="837" y="118.74999999999994" dy="0.35em" text-anchor="end">讚能量生活報</text></g><g><rect x="843" y="174.68749999999994" height="10" width="5" fill="#000"></rect><text x="837" y="179.68749999999994" dy="0.35em" text-anchor="end">貓貓最可愛我超愛！</text></g><g><rect x="843" y="47.49999999999994" height="12.8125" width="5" fill="#000"></rect><text x="837" y="53.90624999999994" dy="0.35em" text-anchor="end">走，一起去看世界！</text></g><g><rect x="843" y="24.374999999999943" height="13.125" width="5" fill="#000"></rect><text x="837" y="30.937499999999943" dy="0.35em" text-anchor="end">青天白日正義力量</text></g><g><rect x="843" y="363.4375000000001" height="4.375" width="5" fill="#000"></rect><text x="837" y="365.6250000000001" dy="0.35em" text-anchor="end">靠北時事</text></g><g><rect x="843" y="213.43749999999994" height="8.75" width="5" fill="#000"></rect><text x="837" y="217.81249999999994" dy="0.35em" text-anchor="end">靠北民進黨</text></g><g><rect x="843" y="749.6875000000001" height="0.3125" width="5" fill="#000"></rect><text x="837" y="749.8437500000001" dy="0.35em" text-anchor="end">韓家軍鐵粉聯盟</text></g><g><rect x="843" y="475.3125000000001" height="3.75" width="5" fill="#000"></rect><text x="837" y="477.1875000000001" dy="0.35em" text-anchor="end">鬼島亂爆</text></g><g><rect x="843" y="515.3125000000001" height="2.8125" width="5" fill="#000"></rect><text x="837" y="516.7187500000001" dy="0.35em" text-anchor="end">鬼島狂新聞</text></g><g><rect x="0" y="230" height="141.5625" width="5" fill="#000"></rect><text x="11" y="300.78125" dy="0.35em" text-anchor="start">密訊</text></g><g><rect x="0" y="518.4375" height="1.5625" width="5" fill="#000"></rect><text x="11" y="519.21875" dy="0.35em" text-anchor="start">怒吼</text></g><g><rect x="0" y="381.5625" height="42.500000000000014" width="5" fill="#000"></rect><text x="11" y="402.8125" dy="0.35em" text-anchor="start">琦琦看新聞</text></g><g><rect x="0" y="434.0625" height="32.1875" width="5" fill="#000"></rect><text x="11" y="450.15625" dy="0.35em" text-anchor="start">看頭條</text></g><g><rect x="0" y="476.25" height="11.875" width="5" fill="#000"></rect><text x="11" y="482.1875" dy="0.35em" text-anchor="start">讚新聞</text></g><g><rect x="0" y="498.125" height="10.3125" width="5" fill="#000"></rect><text x="11" y="503.28125" dy="0.35em" text-anchor="start">鬼島狂新聞</text></g></g></g></svg>