<svg width="848" height="770" xmlns="http://www.w3.org/2000/svg" version="1.1"><g transform="translate(0, 10)"><g class="links" fill="none" stroke-opacity="0.4"><path d="M5,429.37057991513444C424,429.37057991513444,424,161.08910891089104,843,161.08910891089104" style="stroke: rgb(191, 105, 105);" stroke-width="0.6506364922206507"></path><path d="M5,433.2743988684584C424,433.2743988684584,424,228.74115983026866,843,228.74115983026866" style="stroke: rgb(191, 105, 105);" stroke-width="7.157001414427158"></path><path d="M5,440.1060820367752C424,440.1060820367752,424,245.57284299858543,843,245.57284299858543" style="stroke: rgb(191, 105, 105);" stroke-width="6.506364922206506"></path><path d="M5,450.67892503536075C424,450.67892503536075,424,454.7029702970296,843,454.7029702970296" style="stroke: rgb(191, 105, 105);" stroke-width="3.578500707213579"></path><path d="M5,456.2093352192363C424,456.2093352192363,424,708.5360678925035,843,708.5360678925035" style="stroke: rgb(191, 105, 105);" stroke-width="0.32531824611032534"></path><path d="M5,452.7934936350779C424,452.7934936350779,424,544.0594059405939,843,544.0594059405939" style="stroke: rgb(191, 105, 105);" stroke-width="0.6506364922206507"></path><path d="M5,446.1244695898162C424,446.1244695898162,424,310.45968882602534,843,310.45968882602534" style="stroke: rgb(191, 105, 105);" stroke-width="5.530410183875531"></path><path d="M5,455.0707213578502C424,455.0707213578502,424,625.7708628005657,843,625.7708628005657" style="stroke: rgb(191, 105, 105);" stroke-width="0.6506364922206507"></path><path d="M5,455.55869872701567C424,455.55869872701567,424,646.5841584158416,843,646.5841584158416" style="stroke: rgb(191, 105, 105);" stroke-width="0.32531824611032534"></path><path d="M5,453.932107496464C424,453.932107496464,424,580.7284299858557,843,580.7284299858557" style="stroke: rgb(191, 105, 105);" stroke-width="1.6265912305516266"></path><path d="M5,455.884016973126C424,455.884016973126,424,677.5601131541725,843,677.5601131541725" style="stroke: rgb(191, 105, 105);" stroke-width="0.32531824611032534"></path><path d="M5,472.0650636492221C424,472.0650636492221,424,76.3578500707214,843,76.3578500707214" style="stroke: rgb(191, 191, 105);" stroke-width="11.386138613861387"></path><path d="M5,480.8486562942009C424,480.8486562942009,424,749.8373408769448,843,749.8373408769448" style="stroke: rgb(191, 191, 105);" stroke-width="0.32531824611032534"></path><path d="M5,480.5233380480906C424,480.5233380480906,424,739.5120226308345,843,739.5120226308345" style="stroke: rgb(191, 191, 105);" stroke-width="0.32531824611032534"></path><path d="M5,478.5714285714286C424,478.5714285714286,424,545.1980198019801,843,545.1980198019801" style="stroke: rgb(191, 191, 105);" stroke-width="1.6265912305516266"></path><path d="M5,479.8727015558699C424,479.8727015558699,424,656.9094766619519,843,656.9094766619519" style="stroke: rgb(191, 191, 105);" stroke-width="0.32531824611032534"></path><path d="M5,480.19801980198025C424,480.19801980198025,424,687.8854314002829,843,687.8854314002829" style="stroke: rgb(191, 191, 105);" stroke-width="0.32531824611032534"></path><path d="M5,479.5473833097596C424,479.5473833097596,424,615.2828854314002,843,615.2828854314002" style="stroke: rgb(191, 191, 105);" stroke-width="0.32531824611032534"></path><path d="M5,398.87553041018396C424,398.87553041018396,424,294.76661951909466,843,294.76661951909466" style="stroke: rgb(105, 191, 105);" stroke-width="5.855728429985856"></path><path d="M5,404.08062234794915C424,404.08062234794915,424,325.5021216407353,843,325.5021216407353" style="stroke: rgb(105, 191, 105);" stroke-width="4.554455445544555"></path><path d="M5,413.18953323903827C424,413.18953323903827,424,519.8302687411598,843,519.8302687411598" style="stroke: rgb(105, 191, 105);" stroke-width="2.6025459688826027"></path><path d="M5,410.58698727015565C424,410.58698727015565,424,507.22772277227716,843,507.22772277227716" style="stroke: rgb(105, 191, 105);" stroke-width="2.6025459688826027"></path><path d="M5,385.86280056577095C424,385.86280056577095,424,211.5841584158415,843,211.5841584158415" style="stroke: rgb(105, 191, 105);" stroke-width="7.157001414427158"></path><path d="M5,392.6944837340878C424,392.6944837340878,424,262.079207920792,843,262.079207920792" style="stroke: rgb(105, 191, 105);" stroke-width="6.506364922206506"></path><path d="M5,407.82178217821786C424,407.82178217821786,424,494.46251768033943,843,494.46251768033943" style="stroke: rgb(105, 191, 105);" stroke-width="2.927864214992928"></path><path d="M5,418.0693069306932C424,418.0693069306932,424,568.9391796322489,843,568.9391796322489" style="stroke: rgb(105, 191, 105);" stroke-width="1.951909476661952"></path><path d="M5,415.7920792079209C424,415.7920792079209,424,532.4328147100424,843,532.4328147100424" style="stroke: rgb(105, 191, 105);" stroke-width="2.6025459688826027"></path><path d="M5,242.6449787835927C424,242.6449787835927,424,7.644978783592702,843,7.644978783592702" style="stroke: rgb(105, 191, 191);" stroke-width="15.28995756718529"></path><path d="M5,256.958981612447C424,256.958981612447,424,31.958981612447023,843,31.958981612447023" style="stroke: rgb(105, 191, 191);" stroke-width="13.338048090523339"></path><path d="M5,300.87694483734094C424,300.87694483734094,424,137.58840169731258,843,137.58840169731258" style="stroke: rgb(105, 191, 191);" stroke-width="9.434229137199434"></path><path d="M5,280.54455445544556C424,280.54455445544556,424,97.2560113154173,843,97.2560113154173" style="stroke: rgb(105, 191, 191);" stroke-width="10.41018387553041"></path><path d="M5,269.48373408769453C424,269.48373408769453,424,54.80905233380487,843,54.80905233380487" style="stroke: rgb(105, 191, 191);" stroke-width="11.711456859971712"></path><path d="M5,290.954738330976C424,290.954738330976,424,117.66619519094768,843,117.66619519094768" style="stroke: rgb(105, 191, 191);" stroke-width="10.41018387553041"></path><path d="M5,309.8231966053749C424,309.8231966053749,424,156.53465346534648,843,156.53465346534648" style="stroke: rgb(105, 191, 191);" stroke-width="8.45827439886846"></path><path d="M5,333.89674681753905C424,333.89674681753905,424,278.58557284299854,843,278.58557284299854" style="stroke: rgb(105, 191, 191);" stroke-width="6.506364922206506"></path><path d="M5,326.5770862800567C424,326.5770862800567,424,193.9391796322488,843,193.9391796322488" style="stroke: rgb(105, 191, 191);" stroke-width="8.132956152758133"></path><path d="M5,352.927864214993C424,352.927864214993,424,398.1117397454031,843,398.1117397454031" style="stroke: rgb(105, 191, 191);" stroke-width="4.22913719943423"></path><path d="M5,357.1570014144272C424,357.1570014144272,424,412.34087694483736,843,412.34087694483736" style="stroke: rgb(105, 191, 191);" stroke-width="4.22913719943423"></path><path d="M5,370.4950495049505C424,370.4950495049505,424,592.3550212164073,843,592.3550212164073" style="stroke: rgb(105, 191, 191);" stroke-width="1.6265912305516266"></path><path d="M5,339.42715700141457C424,339.42715700141457,424,340.0565770862799,843,340.0565770862799" style="stroke: rgb(105, 191, 191);" stroke-width="4.554455445544555"></path><path d="M5,348.53606789250364C424,348.53606789250364,424,383.7199434229137,843,383.7199434229137" style="stroke: rgb(105, 191, 191);" stroke-width="4.554455445544555"></path><path d="M5,361.3861386138614C424,361.3861386138614,424,426.5700141442716,843,426.5700141442716" style="stroke: rgb(105, 191, 191);" stroke-width="4.22913719943423"></path><path d="M5,318.2814710042434C424,318.2814710042434,424,175.64356435643555,843,175.64356435643555" style="stroke: rgb(105, 191, 191);" stroke-width="8.45827439886846"></path><path d="M5,371.47100424328147C424,371.47100424328147,424,614.9575671852899,843,614.9575671852899" style="stroke: rgb(105, 191, 191);" stroke-width="0.32531824611032534"></path><path d="M5,343.9816124469591C424,343.9816124469591,424,369.1654879773691,843,369.1654879773691" style="stroke: rgb(105, 191, 191);" stroke-width="4.554455445544555"></path><path d="M5,365.6152758132956C424,365.6152758132956,424,440.7991513437058,843,440.7991513437058" style="stroke: rgb(105, 191, 191);" stroke-width="4.22913719943423"></path><path d="M5,368.7057991513437C424,368.7057991513437,424,556.9872701555869,843,556.9872701555869" style="stroke: rgb(105, 191, 191);" stroke-width="1.951909476661952"></path><path d="M5,372.1216407355021C424,372.1216407355021,424,718.8613861386139,843,718.8613861386139" style="stroke: rgb(105, 191, 191);" stroke-width="0.32531824611032534"></path><path d="M5,371.7963224893918C424,371.7963224893918,424,636.2588401697312,843,636.2588401697312" style="stroke: rgb(105, 191, 191);" stroke-width="0.32531824611032534"></path><path d="M5,497.19236209335224C424,497.19236209335224,424,468.11881188118804,843,468.11881188118804" style="stroke: rgb(105, 105, 191);" stroke-width="3.253182461103253"></path><path d="M5,500.4455445544555C424,500.4455445544555,424,481.3719943422913,843,481.3719943422913" style="stroke: rgb(105, 105, 191);" stroke-width="3.253182461103253"></path><path d="M5,493.28854314002837C424,493.28854314002837,424,354.6110325318245,843,354.6110325318245" style="stroke: rgb(105, 105, 191);" stroke-width="4.554455445544555"></path><path d="M5,513.2107496463932C424,513.2107496463932,424,603.9816124469589,843,603.9816124469589" style="stroke: rgb(191, 105, 191);" stroke-width="1.6265912305516266"></path><path d="M5,514.8373408769448C424,514.8373408769448,424,729.1867043847242,843,729.1867043847242" style="stroke: rgb(191, 105, 191);" stroke-width="0.32531824611032534"></path><path d="M5,514.1867043847242C424,514.1867043847242,424,667.2347949080622,843,667.2347949080622" style="stroke: rgb(191, 105, 191);" stroke-width="0.32531824611032534"></path><path d="M5,512.2347949080622C424,512.2347949080622,424,38.790664780763855,843,38.790664780763855" style="stroke: rgb(191, 105, 191);" stroke-width="0.32531824611032534"></path><path d="M5,514.5120226308345C424,514.5120226308345,424,698.2107496463932,843,698.2107496463932" style="stroke: rgb(191, 105, 191);" stroke-width="0.32531824611032534"></path></g><g class="nodes" font-family="Arial, Helvetica" font-size="10"><g><rect x="843" y="579.9151343705798" height="1.6265912305516395" width="5" fill="#000"></rect><text x="837" y="580.7284299858557" dy="0.35em" text-anchor="end">【ღ 摩羯座 ღ】</text></g><g><rect x="843" y="636.0961810466761" height="0.3253182461103279" width="5" fill="#000"></rect><text x="837" y="636.2588401697312" dy="0.35em" text-anchor="end">Gy娛樂看板</text></g><g><rect x="843" y="70.6647807637907" height="11.386138613861394" width="5" fill="#000"></rect><text x="837" y="76.3578500707214" dy="0.35em" text-anchor="end">Hssszn 讚新聞</text></g><g><rect x="843" y="646.4214992927864" height="0.3253182461103279" width="5" fill="#000"></rect><text x="837" y="646.5841584158416" dy="0.35em" text-anchor="end">一帆風順</text></g><g><rect x="843" y="567.9632248939179" height="1.951909476661939" width="5" fill="#000"></rect><text x="837" y="568.9391796322489" dy="0.35em" text-anchor="end">世界華人歷史會社</text></g><g><rect x="843" y="614.7949080622348" height="0.6506364922206558" width="5" fill="#000"></rect><text x="837" y="615.1202263083451" dy="0.35em" text-anchor="end">中國國民黨三民主義青年團</text></g><g><rect x="843" y="656.7468175388967" height="0.3253182461103279" width="5" fill="#000"></rect><text x="837" y="656.9094766619519" dy="0.35em" text-anchor="end">中道  台灣</text></g><g><rect x="843" y="132.87128712871285" height="9.434229137199395" width="5" fill="#000"></rect><text x="837" y="137.58840169731255" dy="0.35em" text-anchor="end">人生正能量</text></g><g><rect x="843" y="92.0509193776521" height="10.410183875530379" width="5" fill="#000"></rect><text x="837" y="97.25601131541728" dy="0.35em" text-anchor="end">人生笑著走</text></g><g><rect x="843" y="505.92644978783585" height="2.602545968882623" width="5" fill="#000"></rect><text x="837" y="507.22772277227716" dy="0.35em" text-anchor="end">全球華人歷史文化聯盟</text></g><g><rect x="843" y="323.224893917963" height="4.5544554455445905" width="5" fill="#000"></rect><text x="837" y="325.5021216407353" dy="0.35em" text-anchor="end">全球華人盛世聯盟</text></g><g><rect x="843" y="291.8387553041017" height="5.855728429985845" width="5" fill="#000"></rect><text x="837" y="294.76661951909466" dy="0.35em" text-anchor="end">全球華人聯盟總主頁</text></g><g><rect x="843" y="518.5289957567185" height="2.602545968882623" width="5" fill="#000"></rect><text x="837" y="519.8302687411598" dy="0.35em" text-anchor="end">全球華人資訊聯盟</text></g><g><rect x="843" y="492.99858557284296" height="2.927864214992894" width="5" fill="#000"></rect><text x="837" y="494.4625176803394" dy="0.35em" text-anchor="end">全球華人軍事聯盟</text></g><g><rect x="843" y="531.1315417256011" height="2.6025459688825663" width="5" fill="#000"></rect><text x="837" y="532.4328147100424" dy="0.35em" text-anchor="end">全球華人鐵血聯盟</text></g><g><rect x="843" y="395.99717114568597" height="4.229137199434263" width="5" fill="#000"></rect><text x="837" y="398.1117397454031" dy="0.35em" text-anchor="end">反民進黨粉絲團</text></g><g><rect x="843" y="275.33239038189527" height="6.506364922206444" width="5" fill="#000"></rect><text x="837" y="278.5855728429985" dy="0.35em" text-anchor="end">反綠救國人人有責</text></g><g><rect x="843" y="667.072135785007" height="0.3253182461103279" width="5" fill="#000"></rect><text x="837" y="667.2347949080622" dy="0.35em" text-anchor="end">反蔡英文粉絲團</text></g><g><rect x="843" y="25.289957567185354" height="13.663366336633658" width="5" fill="#000"></rect><text x="837" y="32.12164073550218" dy="0.35em" text-anchor="end">反蔡英文聯盟－全國民怨嗆蔡總部</text></g><g><rect x="843" y="749.6746817538897" height="0.3253182461103066" width="5" fill="#000"></rect><text x="837" y="749.8373408769448" dy="0.35em" text-anchor="end">同性戀光盟</text></g><g><rect x="843" y="337.7793493635076" height="4.5544554455445905" width="5" fill="#000"></rect><text x="837" y="340.0565770862799" dy="0.35em" text-anchor="end">大中華大平台</text></g><g><rect x="843" y="258.8260254596887" height="6.506364922206529" width="5" fill="#000"></rect><text x="837" y="262.079207920792" dy="0.35em" text-anchor="end">天南地北</text></g><g><rect x="843" y="352.3338048090522" height="4.5544554455445905" width="5" fill="#000"></rect><text x="837" y="354.6110325318245" dy="0.35em" text-anchor="end">守護台灣聯盟</text></g><g><rect x="843" y="591.5417256011315" height="1.6265912305516395" width="5" fill="#000"></rect><text x="837" y="592.3550212164073" dy="0.35em" text-anchor="end">幹譙民進黨</text></g><g><rect x="843" y="307.69448373408756" height="5.5304101838754605" width="5" fill="#000"></rect><text x="837" y="310.4596888260253" dy="0.35em" text-anchor="end">按贊福氣到</text></g><g><rect x="843" y="424.4554455445545" height="4.229137199434149" width="5" fill="#000"></rect><text x="837" y="426.57001414427157" dy="0.35em" text-anchor="end">文青工作會</text></g><g><rect x="843" y="677.3974540311174" height="0.3253182461103279" width="5" fill="#000"></rect><text x="837" y="677.5601131541725" dy="0.35em" text-anchor="end">旅行．美景．看世界！</text></g><g><rect x="843" y="189.87270155586972" height="8.132956152758197" width="5" fill="#000"></rect><text x="837" y="193.93917963224882" dy="0.35em" text-anchor="end">旅行‧電影‧愛音樂</text></g><g><rect x="843" y="687.7227722772277" height="0.3253182461103279" width="5" fill="#000"></rect><text x="837" y="687.8854314002829" dy="0.35em" text-anchor="end">昏官惡狼圍剿社團²</text></g><g><rect x="843" y="625.4455445544554" height="0.6506364922206558" width="5" fill="#000"></rect><text x="837" y="625.7708628005657" dy="0.35em" text-anchor="end">歡樂世界</text></g><g><rect x="843" y="410.22630834512023" height="4.229137199434263" width="5" fill="#000"></rect><text x="837" y="412.34087694483736" dy="0.35em" text-anchor="end">民間大小事</text></g><g><rect x="843" y="452.9137199434228" height="3.578500707213607" width="5" fill="#000"></rect><text x="837" y="454.7029702970296" dy="0.35em" text-anchor="end">爱烘培，爱料理，爱健康</text></g><g><rect x="843" y="208.00565770862792" height="7.157001414427157" width="5" fill="#000"></rect><text x="837" y="211.5841584158415" dy="0.35em" text-anchor="end">琦琦看新聞</text></g><g><rect x="843" y="543.7340876944836" height="2.2772277227722952" width="5" fill="#000"></rect><text x="837" y="544.8727015558698" dy="0.35em" text-anchor="end">祝福天天圍繞你</text></g><g><rect x="843" y="698.048090523338" height="0.3253182461103279" width="5" fill="#000"></rect><text x="837" y="698.2107496463932" dy="0.35em" text-anchor="end">統一中國/中國統一  /  统一中国/中国统一</text></g><g><rect x="843" y="438.68458274398864" height="4.229137199434149" width="5" fill="#000"></rect><text x="837" y="440.7991513437057" dy="0.35em" text-anchor="end">罷免民進黨</text></g><g><rect x="843" y="708.3734087694484" height="0.3253182461103279" width="5" fill="#000"></rect><text x="837" y="708.5360678925035" dy="0.35em" text-anchor="end">臉書航空站</text></g><g><rect x="843" y="152.30551626591225" height="9.108910891089067" width="5" fill="#000"></rect><text x="837" y="156.85997171145678" dy="0.35em" text-anchor="end">芒果新聞台</text></g><g><rect x="843" y="225.16265912305508" height="7.1570014144271" width="5" fill="#000"></rect><text x="837" y="228.74115983026863" dy="0.35em" text-anchor="end">萌寵小天使</text></g><g><rect x="843" y="603.1683168316831" height="1.6265912305516395" width="5" fill="#000"></rect><text x="837" y="603.9816124469589" dy="0.35em" text-anchor="end">蔡英文下台罪狀集結總部</text></g><g><rect x="843" y="556.0113154172559" height="1.9519094766619673" width="5" fill="#000"></rect><text x="837" y="556.9872701555869" dy="0.35em" text-anchor="end">藍色正義力量</text></g><g><rect x="843" y="366.8882602545968" height="4.5544554455445905" width="5" fill="#000"></rect><text x="837" y="369.1654879773691" dy="0.35em" text-anchor="end">討厭民進黨</text></g><g><rect x="843" y="718.6987270155587" height="0.3253182461103279" width="5" fill="#000"></rect><text x="837" y="718.8613861386139" dy="0.35em" text-anchor="end">話說，那些編造的事</text></g><g><rect x="843" y="112.46110325318247" height="10.410183875530379" width="5" fill="#000"></rect><text x="837" y="117.66619519094766" dy="0.35em" text-anchor="end">讚能量生活報</text></g><g><rect x="843" y="242.31966053748218" height="6.506364922206558" width="5" fill="#000"></rect><text x="837" y="245.57284299858546" dy="0.35em" text-anchor="end">貓貓最可愛我超愛！</text></g><g><rect x="843" y="48.95332390381901" height="11.71145685997169" width="5" fill="#000"></rect><text x="837" y="54.80905233380486" dy="0.35em" text-anchor="end">走，一起去看世界！</text></g><g><rect x="843" y="5.684341886080802e-14" height="15.289957567185297" width="5" fill="#000"></rect><text x="837" y="7.644978783592705" dy="0.35em" text-anchor="end">青天白日正義力量</text></g><g><rect x="843" y="381.4427157001414" height="4.5544554455445905" width="5" fill="#000"></rect><text x="837" y="383.7199434229137" dy="0.35em" text-anchor="end">靠北時事</text></g><g><rect x="843" y="171.4144271570013" height="8.458274398868411" width="5" fill="#000"></rect><text x="837" y="175.64356435643552" dy="0.35em" text-anchor="end">靠北民進黨</text></g><g><rect x="843" y="729.024045261669" height="0.3253182461103279" width="5" fill="#000"></rect><text x="837" y="729.1867043847242" dy="0.35em" text-anchor="end">韓家軍鐵粉聯盟</text></g><g><rect x="843" y="466.4922206506364" height="3.253182461103279" width="5" fill="#000"></rect><text x="837" y="468.11881188118804" dy="0.35em" text-anchor="end">鬼島亂爆</text></g><g><rect x="843" y="479.7454031117397" height="3.253182461103279" width="5" fill="#000"></rect><text x="837" y="481.3719943422913" dy="0.35em" text-anchor="end">鬼島狂新聞</text></g><g><rect x="843" y="739.3493635077793" height="0.3253182461103279" width="5" fill="#000"></rect><text x="837" y="739.5120226308345" dy="0.35em" text-anchor="end">黑特來了</text></g><g><rect x="0" y="235.00000000000006" height="137.2842998585573" width="5" fill="#000"></rect><text x="11" y="303.64214992927873" dy="0.35em" text-anchor="start">密訊</text></g><g><rect x="0" y="512.072135785007" height="2.927864214992951" width="5" fill="#000"></rect><text x="11" y="513.5360678925035" dy="0.35em" text-anchor="start">怒吼</text></g><g><rect x="0" y="382.28429985855735" height="36.76096181046677" width="5" fill="#000"></rect><text x="11" y="400.66478076379076" dy="0.35em" text-anchor="start">琦琦看新聞</text></g><g><rect x="0" y="429.0452616690241" height="27.326732673267315" width="5" fill="#000"></rect><text x="11" y="442.7086280056578" dy="0.35em" text-anchor="start">看頭條</text></g><g><rect x="0" y="466.37199434229143" height="14.639321074964634" width="5" fill="#000"></rect><text x="11" y="473.69165487977375" dy="0.35em" text-anchor="start">讚新聞</text></g><g><rect x="0" y="491.01131541725607" height="11.060820367750921" width="5" fill="#000"></rect><text x="11" y="496.54172560113153" dy="0.35em" text-anchor="start">鬼島狂新聞</text></g></g></g></svg>